<svg width="36" height="56" viewBox="0 0 36 56" class="dd-glyph-svg dd-glyph-elevated" aria-hidden="true" xmlns="http://www.w3.org/2000/svg">
  <path d="m0 0h36v56h-36z" fill="none"></path>
  <path d="m34.781 18.3374a9.42 9.42 0 0 0 -6.4-5.9439 9.7754 9.7754 0 0 0 -2.7038-.39 9.3429 9.3429 0 0 0 -2.761.4206 8.4948 8.4948 0 0 0 -4.62 3.38c-.1515.22-.2268.3294-.3024.3294s-.1531-.1121-.3089-.3364a8.6021 8.6021 0 0 0 -5.9849-3.6871 9.1878 9.1878 0 0 0 -1.4175-.11 9.8736 9.8736 0 0 0 -3.195.5465 9.21 9.21 0 0 0 -4.429 3.1809 10.6217 10.6217 0 0 0 -2.1216 5.78 13.9554 13.9554 0 0 0 1.17 6.5777 24.3641 24.3641 0 0 0 4.5818 6.8573 41.9654 41.9654 0 0 0 5.9232 5.3526c1.5071 1.1256 3.0622 2.1884 4.6122 3.2558a2.0748 2.0748 0 0 0 1.1464.4492 1.2964 1.2964 0 0 0 .504-.104 4.2334 4.2334 0 0 0 .7711-.3887c1.3137-.9015 2.6387-1.7888 3.92-2.7348a43.72 43.72 0 0 0 7.12-6.4753 24.6053 24.6053 0 0 0 3.5926-5.2951 14.9016 14.9016 0 0 0 1.6209-6.4294 11.6632 11.6632 0 0 0 -.7181-4.2353zm-2.7 9.7855a22.5551 22.5551 0 0 1 -3.3068 4.8635 41.51 41.51 0 0 1 -6.7974 6.1773c-.9964.7358-2.0528 1.4573-3.0744 2.155l-.7888.54a1.014 1.014 0 0 1 -.1237.067l-.032-.0218-.3626-.25c-1.39-.9571-2.8284-1.9466-4.1872-2.9615a40.13 40.13 0 0 1 -5.6417-5.0973 22.1062 22.1062 0 0 1 -4.2189-6.2913 11.8911 11.8911 0 0 1 -1.0167-5.6446 8.5793 8.5793 0 0 1 1.7155-4.7161 7.1718 7.1718 0 0 1 3.4861-2.5031 7.909 7.909 0 0 1 2.55-.44 7.216 7.216 0 0 1 1.1095.0861 6.6148 6.6148 0 0 1 4.6572 2.8623c.2672.3847.83 1.5147 1.9508 1.5147 1.1255 0 1.6736-1.1336 1.9423-1.5233a6.4888 6.4888 0 0 1 3.5619-2.6045 7.3845 7.3845 0 0 1 2.1731-.3321 7.8194 7.8194 0 0 1 2.1525.3128 7.4522 7.4522 0 0 1 5.0916 4.7575 9.6774 9.6774 0 0 1 .5773 3.4753 12.8548 12.8548 0 0 1 -1.4173 5.5741z"></path>
</svg>